<svg xmlns="http://www.w3.org/2000/svg" xmlns:xlink="http://www.w3.org/1999/xlink" width="166" height="166" viewBox="0 0 1440 487.499991" preserveAspectRatio="xMidYMid meet" version="1.2"><defs><clipPath id="69b4400272"><path d="M 0.738281 0 L 545 0 L 545 487 L 0.738281 487 Z M 0.738281 0 "/></clipPath><clipPath id="2f6aecb9b6"><path d="M 890 0 L 1439.261719 0 L 1439.261719 487 L 890 487 Z M 890 0 "/></clipPath><clipPath id="9eba342475"><path d="M 10 361 L 33 361 L 33 487 L 10 487 Z M 10 361 "/></clipPath><clipPath id="10ce4eb7fc"><path d="M 1407 361 L 1431 361 L 1431 487 L 1407 487 Z M 1407 361 "/></clipPath></defs><g id="2804f4287d"><path style="fill:none;stroke-width:30;stroke-linecap:round;stroke-linejoin:miter;stroke:#000000;stroke-opacity:1;stroke-miterlimit:4;" d="M 14.999948 15.000295 L 1870.42025 15.000295 " transform="matrix(0.74907,0.000000000000000023,-0.000000000000000023,0.74907,12.912425,359.798884)"/><path style="fill:none;stroke-width:30;stroke-linecap:round;stroke-linejoin:miter;stroke:#000000;stroke-opacity:1;stroke-miterlimit:4;" d="M 14.99852 14.999169 L 1347.055022 14.999169 " transform="matrix(0.749206,0,0,0.749206,207.934898,192.395349)"/><g style="fill:#000000;fill-opacity:1;"><g transform="translate(419.847032, 194.844919)"><path style="stroke:none" d="M 66.625 1.296875 C 47.507812 1.296875 33.382812 -4.921875 24.25 -17.359375 C 15.125 -29.796875 10.5625 -49.164062 10.5625 -75.46875 C 10.5625 -101.488281 15.195312 -120.785156 24.46875 -133.359375 C 33.738281 -145.941406 47.863281 -152.234375 66.84375 -152.234375 C 70.863281 -152.234375 74.816406 -151.875 78.703125 -151.15625 C 82.585938 -150.4375 85.894531 -149.429688 88.625 -148.140625 C 90.0625 -147.554688 91.03125 -146.832031 91.53125 -145.96875 C 92.03125 -145.113281 92.28125 -143.894531 92.28125 -142.3125 C 92.28125 -139.863281 91.707031 -137.054688 90.5625 -133.890625 C 89.414062 -130.734375 87.765625 -129.734375 85.609375 -130.890625 C 79.566406 -133.898438 73.3125 -135.40625 66.84375 -135.40625 C 54.476562 -135.40625 45.347656 -130.585938 39.453125 -120.953125 C 33.566406 -111.328125 30.625 -96.238281 30.625 -75.6875 C 30.625 -55.125 33.53125 -39.957031 39.34375 -30.1875 C 45.164062 -20.414062 54.257812 -15.53125 66.625 -15.53125 C 74.101562 -15.53125 80.859375 -17.328125 86.890625 -20.921875 C 87.753906 -21.203125 88.40625 -21.34375 88.84375 -21.34375 C 90.707031 -21.34375 92.175781 -20.082031 93.25 -17.5625 C 94.332031 -15.050781 94.875 -12.644531 94.875 -10.34375 C 94.875 -8.90625 94.515625 -7.613281 93.796875 -6.46875 C 93.078125 -5.320312 91.710938 -4.242188 89.703125 -3.234375 C 87.253906 -2.085938 83.945312 -1.046875 79.78125 -0.109375 C 75.613281 0.828125 71.226562 1.296875 66.625 1.296875 Z M 66.625 1.296875 "/></g></g><g style="fill:#000000;fill-opacity:1;"><g transform="translate(546.416044, 194.844919)"><path style="stroke:none" d="M 10.78125 0.4375 C 5.457031 0.4375 2.796875 -0.785156 2.796875 -3.234375 C 2.796875 -3.660156 2.941406 -4.59375 3.234375 -6.03125 L 42.265625 -147.265625 C 43.128906 -150.003906 46.003906 -151.375 50.890625 -151.375 L 57.78125 -151.375 C 62.957031 -151.375 65.832031 -150.003906 66.40625 -147.265625 L 105.4375 -6.03125 C 105.875 -5.03125 106.09375 -4.097656 106.09375 -3.234375 C 106.09375 -2.085938 105.40625 -1.1875 104.03125 -0.53125 C 102.664062 0.113281 100.691406 0.4375 98.109375 0.4375 L 94.4375 0.4375 C 89.84375 0.4375 87.257812 -0.710938 86.6875 -3.015625 L 77.40625 -38.375 L 31.046875 -38.375 L 22 -3.015625 C 21.414062 -0.710938 18.828125 0.4375 14.234375 0.4375 Z M 72.671875 -54.765625 L 57.359375 -113.84375 C 56.921875 -115.71875 56.128906 -120.101562 54.984375 -127 L 53.90625 -127 C 53.613281 -126 53.328125 -124.347656 53.046875 -122.046875 L 51.3125 -113.84375 L 36.015625 -54.765625 Z M 72.671875 -54.765625 "/></g></g><g style="fill:#000000;fill-opacity:1;"><g transform="translate(682.90359, 194.844919)"><path style="stroke:none" d="M 70.9375 -51.53125 C 68.632812 -51.53125 67.054688 -52.46875 66.203125 -54.34375 L 40.96875 -103.9375 C 38.957031 -107.957031 36.800781 -112.914062 34.5 -118.8125 L 33.640625 -118.375 C 34.359375 -112.625 34.71875 -107.519531 34.71875 -103.0625 L 34.71875 -4.3125 C 34.71875 -1.144531 31.984375 0.4375 26.515625 0.4375 L 23.9375 0.4375 C 18.46875 0.4375 15.734375 -1.144531 15.734375 -4.3125 L 15.734375 -146.625 C 15.734375 -149.789062 18.46875 -151.375 23.9375 -151.375 L 28.46875 -151.375 C 32.632812 -151.375 35.363281 -150.078125 36.65625 -147.484375 L 71.15625 -80 C 72.738281 -76.832031 73.890625 -73.378906 74.609375 -69.640625 C 75.328125 -73.378906 76.476562 -76.832031 78.0625 -80 L 112.5625 -147.484375 C 113.851562 -150.078125 116.582031 -151.375 120.75 -151.375 L 125.28125 -151.375 C 130.738281 -151.375 133.46875 -149.789062 133.46875 -146.625 L 133.46875 -4.3125 C 133.46875 -1.144531 130.738281 0.4375 125.28125 0.4375 L 122.6875 0.4375 C 117.226562 0.4375 114.5 -1.144531 114.5 -4.3125 L 114.5 -103.0625 C 114.5 -107.519531 114.859375 -112.625 115.578125 -118.375 L 114.71875 -118.8125 C 112.414062 -112.914062 110.257812 -107.957031 108.25 -103.9375 L 83.015625 -54.34375 C 82.148438 -52.46875 80.566406 -51.53125 78.265625 -51.53125 Z M 70.9375 -51.53125 "/></g></g><g style="fill:#000000;fill-opacity:1;"><g transform="translate(859.065276, 194.844919)"><path style="stroke:none" d="M 23.9375 0.4375 C 18.46875 0.4375 15.734375 -1.144531 15.734375 -4.3125 L 15.734375 -144.46875 C 15.734375 -146.769531 16.203125 -148.421875 17.140625 -149.421875 C 18.078125 -150.429688 19.550781 -150.9375 21.5625 -150.9375 L 57.140625 -150.9375 C 67.347656 -150.9375 76.441406 -147.914062 84.421875 -141.875 C 92.398438 -135.84375 96.390625 -124.773438 96.390625 -108.671875 C 96.390625 -96.742188 94.125 -87.472656 89.59375 -80.859375 C 85.0625 -74.242188 79.957031 -69.820312 74.28125 -67.59375 C 68.601562 -65.363281 63.460938 -64.25 58.859375 -64.25 L 35.140625 -64.25 L 35.140625 -4.3125 C 35.140625 -1.144531 32.410156 0.4375 26.953125 0.4375 Z M 57.78125 -80.640625 C 62.53125 -80.640625 66.84375 -82.722656 70.71875 -86.890625 C 74.601562 -91.066406 76.546875 -98.328125 76.546875 -108.671875 C 76.546875 -118.304688 74.566406 -125.023438 70.609375 -128.828125 C 66.660156 -132.640625 61.882812 -134.546875 56.28125 -134.546875 L 35.140625 -134.546875 L 35.140625 -80.640625 Z M 57.78125 -80.640625 "/></g></g><g style="fill:#000000;fill-opacity:1;"><g transform="translate(990.595881, 194.844919)"><path style="stroke:none" d=""/></g></g><path style="fill:none;stroke-width:30;stroke-linecap:round;stroke-linejoin:miter;stroke:#000000;stroke-opacity:1;stroke-miterlimit:4;" d="M 15.002599 15.002026 L 808.469942 15.002026 " transform="matrix(0.748805,0.000000000000000149,-0.000000000000000149,0.748805,407.34801,23.328907)"/><g clip-rule="nonzero" clip-path="url(#69b4400272)"><path style="fill:none;stroke-width:30;stroke-linecap:round;stroke-linejoin:miter;stroke:#000000;stroke-opacity:1;stroke-miterlimit:4;" d="M 14.99995 15.000414 L 708.181572 14.999797 " transform="matrix(-0.571477,0.484248,-0.484248,-0.571477,433.550877,35.832133)"/></g><g clip-rule="nonzero" clip-path="url(#2f6aecb9b6)"><path style="fill:none;stroke-width:30;stroke-linecap:round;stroke-linejoin:miter;stroke:#000000;stroke-opacity:1;stroke-miterlimit:4;" d="M 14.998145 14.99958 L 711.076991 14.997952 " transform="matrix(-0.573193,-0.482391,0.482391,-0.573193,1418.283044,386.133405)"/></g><g style="fill:#000000;fill-opacity:1;"><g transform="translate(203.15799, 362.602165)"><path style="stroke:none" d="M 22.921875 0 C 20.890625 0 19.398438 -0.507812 18.453125 -1.53125 C 17.503906 -2.550781 17.03125 -4.222656 17.03125 -6.546875 L 17.03125 -148.484375 C 17.03125 -151.679688 19.796875 -153.28125 25.328125 -153.28125 L 28.390625 -153.28125 C 33.921875 -153.28125 36.6875 -151.679688 36.6875 -148.484375 L 36.6875 -16.59375 L 82.109375 -16.59375 C 83.703125 -16.59375 84.828125 -16.082031 85.484375 -15.0625 C 86.140625 -14.039062 86.46875 -12.367188 86.46875 -10.046875 L 86.46875 -6.546875 C 86.46875 -4.222656 86.140625 -2.550781 85.484375 -1.53125 C 84.828125 -0.507812 83.703125 0 82.109375 0 Z M 22.921875 0 "/></g></g><g style="fill:#000000;fill-opacity:1;"><g transform="translate(285.69919, 362.602165)"><path style="stroke:none" d="M 63.765625 1.3125 C 48.179688 1.3125 36.128906 -2.546875 27.609375 -10.265625 C 19.097656 -17.984375 14.84375 -28.753906 14.84375 -42.578125 L 14.84375 -148.484375 C 14.84375 -151.679688 17.609375 -153.28125 23.140625 -153.28125 L 26.203125 -153.28125 C 31.734375 -153.28125 34.5 -151.679688 34.5 -148.484375 L 34.5 -41.921875 C 34.5 -34.066406 37.226562 -27.660156 42.6875 -22.703125 C 48.144531 -17.753906 55.171875 -15.28125 63.765625 -15.28125 C 72.203125 -15.28125 79.148438 -17.789062 84.609375 -22.8125 C 90.066406 -27.84375 92.796875 -34.210938 92.796875 -41.921875 L 92.796875 -148.484375 C 92.796875 -151.679688 95.5625 -153.28125 101.09375 -153.28125 L 104.15625 -153.28125 C 109.6875 -153.28125 112.453125 -151.679688 112.453125 -148.484375 L 112.453125 -42.578125 C 112.453125 -28.753906 108.226562 -17.984375 99.78125 -10.265625 C 91.34375 -2.546875 79.335938 1.3125 63.765625 1.3125 Z M 63.765625 1.3125 "/></g></g><g style="fill:#000000;fill-opacity:1;"><g transform="translate(406.45394, 362.602165)"><path style="stroke:none" d="M 10.703125 -50.21875 C 7.929688 -50.21875 6.546875 -52.40625 6.546875 -56.78125 L 6.546875 -58.953125 C 6.546875 -63.328125 7.929688 -65.515625 10.703125 -65.515625 L 44.765625 -65.515625 C 47.523438 -65.515625 48.90625 -63.328125 48.90625 -58.953125 L 48.90625 -56.78125 C 48.90625 -52.40625 47.523438 -50.21875 44.765625 -50.21875 Z M 10.703125 -50.21875 "/></g></g><g style="fill:#000000;fill-opacity:1;"><g transform="translate(455.367225, 362.602165)"><path style="stroke:none" d="M 21.625 1.3125 C 16.957031 1.3125 12.515625 0.691406 8.296875 -0.546875 C 4.078125 -1.785156 1.96875 -3.492188 1.96875 -5.671875 C 1.96875 -7.566406 2.472656 -10.039062 3.484375 -13.09375 C 4.503906 -16.15625 5.671875 -17.6875 6.984375 -17.6875 C 7.859375 -17.6875 9.53125 -17.359375 12 -16.703125 C 14.476562 -16.046875 16.957031 -15.71875 19.4375 -15.71875 C 26.71875 -15.71875 31.992188 -17.828125 35.265625 -22.046875 C 38.535156 -26.273438 40.171875 -33.117188 40.171875 -42.578125 L 40.171875 -148.484375 C 40.171875 -151.679688 42.9375 -153.28125 48.46875 -153.28125 L 51.53125 -153.28125 C 57.207031 -153.28125 60.046875 -151.679688 60.046875 -148.484375 L 60.046875 -44.765625 C 60.046875 -30.347656 56.953125 -19.0625 50.765625 -10.90625 C 44.578125 -2.757812 34.863281 1.3125 21.625 1.3125 Z M 21.625 1.3125 "/></g></g><g style="fill:#000000;fill-opacity:1;"><g transform="translate(526.335143, 362.602165)"><path style="stroke:none" d="M 65.296875 1.3125 C 47.535156 1.3125 33.992188 -5.164062 24.671875 -18.125 C 15.359375 -31.082031 10.703125 -50.660156 10.703125 -76.859375 C 10.703125 -128.390625 28.898438 -154.15625 65.296875 -154.15625 C 101.828125 -154.15625 120.09375 -128.390625 120.09375 -76.859375 C 120.09375 -50.660156 115.429688 -31.082031 106.109375 -18.125 C 96.796875 -5.164062 83.191406 1.3125 65.296875 1.3125 Z M 65.515625 -15.28125 C 88.515625 -15.28125 100.015625 -35.804688 100.015625 -76.859375 C 100.015625 -117.328125 88.515625 -137.5625 65.515625 -137.5625 C 54.003906 -137.5625 45.375 -132.648438 39.625 -122.828125 C 33.875 -113.003906 31 -97.679688 31 -76.859375 C 31 -35.804688 42.503906 -15.28125 65.515625 -15.28125 Z M 65.515625 -15.28125 "/></g></g><g style="fill:#000000;fill-opacity:1;"><g transform="translate(650.583739, 362.602165)"><path style="stroke:none" d="M 10.703125 -50.21875 C 7.929688 -50.21875 6.546875 -52.40625 6.546875 -56.78125 L 6.546875 -58.953125 C 6.546875 -63.328125 7.929688 -65.515625 10.703125 -65.515625 L 44.765625 -65.515625 C 47.523438 -65.515625 48.90625 -63.328125 48.90625 -58.953125 L 48.90625 -56.78125 C 48.90625 -52.40625 47.523438 -50.21875 44.765625 -50.21875 Z M 10.703125 -50.21875 "/></g></g><g style="fill:#000000;fill-opacity:1;"><g transform="translate(699.496978, 362.602165)"><path style="stroke:none" d="M 26.203125 0.4375 C 20.671875 0.4375 17.90625 -1.164062 17.90625 -4.375 L 17.90625 -148.484375 C 17.90625 -151.679688 20.671875 -153.28125 26.203125 -153.28125 L 29.046875 -153.28125 C 34.722656 -153.28125 37.5625 -151.679688 37.5625 -148.484375 L 37.5625 -80.359375 L 38.21875 -80.359375 L 84.5 -150.234375 C 85.8125 -152.265625 89.234375 -153.28125 94.765625 -153.28125 L 98.484375 -153.28125 C 100.953125 -153.28125 102.84375 -153.023438 104.15625 -152.515625 C 105.46875 -152.015625 106.125 -151.328125 106.125 -150.453125 C 106.125 -149.285156 105.46875 -147.828125 104.15625 -146.078125 L 57.203125 -77.953125 L 108.3125 -6.109375 C 109.320312 -4.804688 109.828125 -3.644531 109.828125 -2.625 C 109.828125 -1.457031 109.171875 -0.65625 107.859375 -0.21875 C 106.554688 0.21875 104.300781 0.4375 101.09375 0.4375 L 96.515625 0.4375 C 93.597656 0.4375 91.335938 0.289062 89.734375 0 C 88.140625 -0.289062 86.90625 -1.09375 86.03125 -2.40625 L 38.21875 -73.59375 L 37.5625 -73.59375 L 37.5625 -4.375 C 37.5625 -1.164062 34.722656 0.4375 29.046875 0.4375 Z M 26.203125 0.4375 "/></g></g><g style="fill:#000000;fill-opacity:1;"><g transform="translate(804.311238, 362.602165)"><path style="stroke:none" d="M 27.078125 0.4375 C 21.546875 0.4375 18.78125 -1.164062 18.78125 -4.375 L 18.78125 -148.484375 C 18.78125 -151.679688 21.546875 -153.28125 27.078125 -153.28125 L 30.359375 -153.28125 C 35.742188 -153.28125 38.4375 -151.679688 38.4375 -148.484375 L 38.4375 -4.375 C 38.4375 -1.164062 35.742188 0.4375 30.359375 0.4375 Z M 27.078125 0.4375 "/></g></g><g style="fill:#000000;fill-opacity:1;"><g transform="translate(854.971434, 362.602165)"><path style="stroke:none" d="M 43.671875 1.09375 C 30.128906 1.09375 18.703125 -2.253906 9.390625 -8.953125 C 8.515625 -9.535156 7.894531 -10.15625 7.53125 -10.8125 C 7.164062 -11.46875 6.984375 -12.519531 6.984375 -13.96875 C 6.984375 -16.59375 7.457031 -19.320312 8.40625 -22.15625 C 9.351562 -25 10.554688 -26.421875 12.015625 -26.421875 C 12.597656 -26.421875 13.03125 -26.273438 13.3125 -25.984375 C 13.601562 -25.691406 13.820312 -25.546875 13.96875 -25.546875 C 21.976562 -19.285156 32.097656 -16.15625 44.328125 -16.15625 C 51.753906 -16.15625 57.832031 -18.375 62.5625 -22.8125 C 67.289062 -27.257812 69.65625 -33.265625 69.65625 -40.828125 C 69.65625 -47.671875 67.757812 -53.019531 63.96875 -56.875 C 60.1875 -60.738281 54.585938 -64.5625 47.171875 -68.34375 C 38.867188 -72.414062 32.28125 -76.125 27.40625 -79.46875 C 22.53125 -82.820312 18.453125 -87.15625 15.171875 -92.46875 C 11.898438 -97.789062 10.265625 -104.453125 10.265625 -112.453125 C 10.265625 -125.703125 14.445312 -136.144531 22.8125 -143.78125 C 31.1875 -151.425781 42.070312 -155.25 55.46875 -155.25 C 65.800781 -155.25 74.679688 -153.066406 82.109375 -148.703125 C 83.117188 -148.117188 83.625 -147.242188 83.625 -146.078125 C 83.625 -144.191406 82.929688 -141.5 81.546875 -138 C 80.171875 -134.507812 78.828125 -132.765625 77.515625 -132.765625 C 77.078125 -132.765625 76.128906 -133.128906 74.671875 -133.859375 C 69.140625 -136.617188 62.375 -138 54.375 -138 C 47.382812 -138 41.488281 -136 36.6875 -132 C 31.882812 -128 29.484375 -122.210938 29.484375 -114.640625 C 29.484375 -108.085938 31.484375 -102.804688 35.484375 -98.796875 C 39.484375 -94.796875 46 -90.46875 55.03125 -85.8125 C 62.445312 -82.03125 68.445312 -78.5 73.03125 -75.21875 C 77.625 -71.945312 81.445312 -67.65625 84.5 -62.34375 C 87.5625 -57.03125 89.09375 -50.367188 89.09375 -42.359375 C 89.09375 -28.679688 84.867188 -18.019531 76.421875 -10.375 C 67.984375 -2.726562 57.066406 1.09375 43.671875 1.09375 Z M 43.671875 1.09375 "/></g></g><g style="fill:#000000;fill-opacity:1;"><g transform="translate(943.845181, 362.602165)"><path style="stroke:none" d="M 71.84375 -52.1875 C 69.507812 -52.1875 67.90625 -53.132812 67.03125 -55.03125 L 41.484375 -105.25 C 39.453125 -109.320312 37.269531 -114.34375 34.9375 -120.3125 L 34.0625 -119.875 C 34.789062 -114.050781 35.15625 -108.882812 35.15625 -104.375 L 35.15625 -4.375 C 35.15625 -1.164062 32.390625 0.4375 26.859375 0.4375 L 24.234375 0.4375 C 18.703125 0.4375 15.9375 -1.164062 15.9375 -4.375 L 15.9375 -148.484375 C 15.9375 -151.679688 18.703125 -153.28125 24.234375 -153.28125 L 28.828125 -153.28125 C 33.046875 -153.28125 35.8125 -151.972656 37.125 -149.359375 L 72.0625 -81.015625 C 73.65625 -77.804688 74.816406 -74.3125 75.546875 -70.53125 C 76.273438 -74.3125 77.441406 -77.804688 79.046875 -81.015625 L 113.984375 -149.359375 C 115.296875 -151.972656 118.0625 -153.28125 122.28125 -153.28125 L 126.859375 -153.28125 C 132.398438 -153.28125 135.171875 -151.679688 135.171875 -148.484375 L 135.171875 -4.375 C 135.171875 -1.164062 132.398438 0.4375 126.859375 0.4375 L 124.25 0.4375 C 118.71875 0.4375 115.953125 -1.164062 115.953125 -4.375 L 115.953125 -104.375 C 115.953125 -108.882812 116.316406 -114.050781 117.046875 -119.875 L 116.171875 -120.3125 C 113.835938 -114.34375 111.648438 -109.320312 109.609375 -105.25 L 84.0625 -55.03125 C 83.195312 -53.132812 81.597656 -52.1875 79.265625 -52.1875 Z M 71.84375 -52.1875 "/></g></g><g style="fill:#000000;fill-opacity:1;"><g transform="translate(1087.746421, 362.602165)"><path style="stroke:none" d="M 27.078125 0.4375 C 21.546875 0.4375 18.78125 -1.164062 18.78125 -4.375 L 18.78125 -148.484375 C 18.78125 -151.679688 21.546875 -153.28125 27.078125 -153.28125 L 30.359375 -153.28125 C 35.742188 -153.28125 38.4375 -151.679688 38.4375 -148.484375 L 38.4375 -4.375 C 38.4375 -1.164062 35.742188 0.4375 30.359375 0.4375 Z M 27.078125 0.4375 "/></g></g><g style="fill:#000000;fill-opacity:1;"><g transform="translate(1138.406617, 362.602165)"><path style="stroke:none" d="M 25.328125 0.4375 C 19.796875 0.4375 17.03125 -1.164062 17.03125 -4.375 L 17.03125 -146.296875 C 17.03125 -148.628906 17.503906 -150.304688 18.453125 -151.328125 C 19.398438 -152.347656 20.890625 -152.859375 22.921875 -152.859375 L 79.703125 -152.859375 C 82.460938 -152.859375 83.84375 -150.671875 83.84375 -146.296875 L 83.84375 -142.8125 C 83.84375 -138.4375 82.460938 -136.25 79.703125 -136.25 L 36.6875 -136.25 L 36.6875 -82.109375 L 75.984375 -82.109375 C 78.753906 -82.109375 80.140625 -79.921875 80.140625 -75.546875 L 80.140625 -72.0625 C 80.140625 -67.695312 78.753906 -65.515625 75.984375 -65.515625 L 36.6875 -65.515625 L 36.6875 -4.375 C 36.6875 -1.164062 33.921875 0.4375 28.390625 0.4375 Z M 25.328125 0.4375 "/></g></g><path style="fill:none;stroke-width:8;stroke-linecap:round;stroke-linejoin:miter;stroke:#000000;stroke-opacity:1;stroke-miterlimit:4;" d="M 4.000053 4.002317 L 88.868263 4.002317 " transform="matrix(0,-0.749232,0.749232,0,674.993525,374.379778)"/><path style="fill:none;stroke-width:8;stroke-linecap:round;stroke-linejoin:miter;stroke:#000000;stroke-opacity:1;stroke-miterlimit:4;" d="M 4.000565 4.000032 L 88.868775 4.000032 " transform="matrix(0,-0.749232,0.749232,0,431.682738,378.575474)"/><g clip-rule="nonzero" clip-path="url(#9eba342475)"><path style="fill:none;stroke-width:30;stroke-linecap:round;stroke-linejoin:miter;stroke:#000000;stroke-opacity:1;stroke-miterlimit:4;" d="M 15.002545 15.001241 L 194.525034 15.001241 " transform="matrix(0,0.749232,-0.749232,0,32.630028,361.451027)"/></g><g clip-rule="nonzero" clip-path="url(#10ce4eb7fc)"><path style="fill:none;stroke-width:30;stroke-linecap:round;stroke-linejoin:miter;stroke:#000000;stroke-opacity:1;stroke-miterlimit:4;" d="M 15.002545 14.999695 L 194.525034 14.999695 " transform="matrix(0,0.749232,-0.749232,0,1430.468713,361.451027)"/></g></g></svg>
